<svg xmlns="http://www.w3.org/2000/svg" viewBox="0 0 64 64" fill="none">
    <defs>
        <linearGradient id="bg" x1="10" y1="8" x2="55" y2="56" gradientUnits="userSpaceOnUse">
            <stop stop-color="#121926"/>
            <stop offset="1" stop-color="#050816"/>
        </linearGradient>
        <linearGradient id="ring" x1="14" y1="10" x2="51" y2="54" gradientUnits="userSpaceOnUse">
            <stop stop-color="#FF8A1F"/>
            <stop offset="0.55" stop-color="#FF5F6D"/>
            <stop offset="1" stop-color="#27C2FF"/>
        </linearGradient>
        <linearGradient id="shield" x1="22" y1="17" x2="42" y2="45" gradientUnits="userSpaceOnUse">
            <stop stop-color="#FFF0D9"/>
            <stop offset="1" stop-color="#FFD097"/>
        </linearGradient>
        <filter id="glow" x="0" y="0" width="64" height="64" filterUnits="userSpaceOnUse" color-interpolation-filters="sRGB">
            <feGaussianBlur stdDeviation="4"/>
        </filter>
    </defs>

    <rect x="6" y="6" width="52" height="52" rx="16" fill="url(#bg)"/>
    <rect x="8" y="8" width="48" height="48" rx="14" stroke="url(#ring)" stroke-width="2.5"/>

    <path d="M18 20C18 18.9 18.9 18 20 18H28C29.1 18 30 18.9 30 20V24.5C30 32.7 25.6 38.5 18.8 42.2C18.3 42.5 17.7 42.5 17.2 42.2C10.4 38.5 6 32.7 6 24.5V20C6 18.9 6.9 18 8 18H16C17.1 18 18 18.9 18 20Z" transform="translate(14 2)" fill="#FF8A1F" fill-opacity="0.18" filter="url(#glow)"/>

    <path d="M32 14L44 18V29C44 37.2 39.1 44.4 32 48C24.9 44.4 20 37.2 20 29V18L32 14Z" fill="url(#shield)"/>
    <path d="M32 17L41 20.1V28.5C41 35 37.3 40.6 32 43.7C26.7 40.6 23 35 23 28.5V20.1L32 17Z" fill="#0A1220"/>

    <path d="M28.3 24.1L23.7 28L28.3 31.9" stroke="#FFE2B7" stroke-width="2.7" stroke-linecap="round" stroke-linejoin="round"/>
    <path d="M35.7 24.1L40.3 28L35.7 31.9" stroke="#FFE2B7" stroke-width="2.7" stroke-linecap="round" stroke-linejoin="round"/>
    <path d="M33.6 22.8L30.4 33.2" stroke="#27C2FF" stroke-width="2.8" stroke-linecap="round"/>

    <circle cx="46.5" cy="18.5" r="3.5" fill="#27C2FF" fill-opacity="0.9"/>
    <circle cx="46.5" cy="18.5" r="1.4" fill="#EAFBFF"/>
</svg>